<svg width="80" height="52" viewBox="0 0 80 52" fill="none" xmlns="http://www.w3.org/2000/svg">
<path d="M79 40V49C79 50.1046 78.1046 51 77 51H3C1.89543 51 1 50.1046 1 49V40C1 18.4609 18.4609 1 40 1C61.5391 1 79 18.4609 79 40Z" fill="#FCFCFC" stroke="#484848" stroke-width="2"/>
<path d="M23.6512 23.458C23.6512 23.3701 23.6536 23.2798 23.6585 23.187C23.6683 23.0942 23.678 23.0039 23.6878 22.916C23.7024 22.7842 23.7171 22.6401 23.7317 22.4839C23.7464 22.3276 23.7537 22.1519 23.7537 21.9565C23.7537 21.5757 23.7513 21.2168 23.7464 20.8799C23.7464 20.5381 23.7415 20.1865 23.7317 19.8252C23.7317 19.8154 23.7317 19.8008 23.7317 19.7812C23.7317 19.7568 23.7293 19.7104 23.7244 19.6421C23.7244 19.5737 23.722 19.4736 23.7171 19.3418C23.7171 19.21 23.7146 19.0244 23.7098 18.7852C23.7049 18.5459 23.6976 18.248 23.6878 17.8916C23.6829 17.5303 23.6756 17.0908 23.6658 16.5732C23.6023 16.583 23.5267 16.5928 23.4388 16.6025C23.3558 16.6074 23.2557 16.6099 23.1385 16.6099C23.0506 16.6099 22.9603 16.5952 22.8675 16.5659C22.7796 16.5366 22.6966 16.4927 22.6185 16.4341C22.5452 16.3706 22.4842 16.29 22.4354 16.1924C22.3914 16.0898 22.3694 15.9653 22.3694 15.8188C22.3694 15.5552 22.4354 15.3574 22.5672 15.2256C22.7039 15.0889 22.8699 15.0205 23.0652 15.0205C23.1434 15.0205 23.219 15.0303 23.2923 15.0498C23.3655 15.0693 23.4437 15.0791 23.5267 15.0791C23.6243 15.0791 23.7244 15.0767 23.827 15.0718C23.9295 15.0669 24.0296 15.0596 24.1272 15.0498C24.2347 15.04 24.3396 15.0327 24.4422 15.0278C24.5496 15.0229 24.6448 15.0205 24.7278 15.0205C24.928 15.0205 25.094 15.0864 25.2259 15.2183C25.3577 15.3501 25.4236 15.5356 25.4236 15.7749C25.4236 15.8335 25.4212 15.9019 25.4163 15.98C25.4163 16.0581 25.4114 16.1338 25.4017 16.207C25.5677 16.0459 25.7557 15.8921 25.9656 15.7456C26.1756 15.5991 26.4026 15.4697 26.6468 15.3574C26.8958 15.2402 27.1619 15.1475 27.4451 15.0791C27.7283 15.0107 28.0286 14.9766 28.346 14.9766C28.9661 14.9766 29.5081 15.0791 29.972 15.2842C30.4407 15.4844 30.8313 15.7773 31.1438 16.1631C31.4612 16.5439 31.698 17.0127 31.8543 17.5693C32.0154 18.126 32.096 18.7583 32.096 19.4663C32.096 19.6812 32.0813 19.9058 32.0521 20.1401C32.0228 20.3745 31.9813 20.6089 31.9275 20.8433C31.8787 21.0776 31.8177 21.312 31.7444 21.5464C31.6761 21.7759 31.5979 21.9932 31.5101 22.1982C31.6224 22.1641 31.7298 22.1348 31.8323 22.1104C31.9349 22.0859 32.0203 22.0688 32.0887 22.0591C32.6355 22.0054 32.909 22.2544 32.909 22.8062C32.909 22.8745 32.9017 22.9502 32.887 23.0332C32.8724 23.1113 32.8431 23.1895 32.7991 23.2676C32.7552 23.3408 32.6941 23.4116 32.616 23.48C32.5379 23.5435 32.4378 23.5972 32.3157 23.6411L31.5247 23.8242C31.2806 23.8975 31.0828 23.9585 30.9314 24.0073C30.785 24.061 30.6604 24.1025 30.5579 24.1318C30.4603 24.166 30.3772 24.188 30.3089 24.1978C30.2405 24.2124 30.1648 24.2173 30.0818 24.2124C29.9646 24.2124 29.8621 24.1831 29.7742 24.1245C29.6863 24.0708 29.6131 24.0024 29.5545 23.9194C29.4959 23.8315 29.452 23.7363 29.4227 23.6338C29.3934 23.5312 29.3787 23.4312 29.3787 23.3335C29.3787 23.1772 29.4007 23.0186 29.4446 22.8574C29.4886 22.6963 29.5667 22.5498 29.679 22.418C29.8157 22.2422 29.9305 22.0444 30.0232 21.8247C30.1209 21.605 30.199 21.3682 30.2576 21.1143C30.3162 20.8604 30.3577 20.5942 30.3821 20.3159C30.4114 20.0376 30.4261 19.7544 30.4261 19.4663C30.4261 19.1343 30.3895 18.7974 30.3162 18.4556C30.2479 18.1089 30.1282 17.7964 29.9573 17.5181C29.7913 17.2349 29.5691 17.0054 29.2908 16.8296C29.0174 16.6489 28.6731 16.5586 28.2581 16.5586C27.97 16.5586 27.6868 16.605 27.4085 16.6978C27.1351 16.7856 26.8714 16.9053 26.6175 17.0566C26.3685 17.2031 26.1341 17.3716 25.9144 17.562C25.6946 17.7524 25.5018 17.9478 25.3357 18.1479C25.3309 18.3677 25.326 18.5898 25.3211 18.8145C25.3211 19.0342 25.3211 19.2563 25.3211 19.481C25.3113 19.8618 25.304 20.2402 25.2991 20.6162C25.2942 20.9922 25.2918 21.373 25.2918 21.7588C25.2918 21.8711 25.2918 21.9858 25.2918 22.103C25.2918 22.2153 25.2967 22.335 25.3064 22.4619L25.5042 22.4033C25.5579 22.3887 25.6092 22.3765 25.658 22.3667C25.7117 22.3521 25.7581 22.3447 25.7972 22.3447C26.0608 22.3447 26.261 22.4106 26.3978 22.5425C26.5345 22.6694 26.6028 22.8574 26.6028 23.1064C26.6028 23.292 26.5662 23.4409 26.493 23.5532C26.4197 23.6606 26.327 23.7461 26.2146 23.8096C26.1023 23.8682 25.9778 23.9097 25.8411 23.9341C25.7093 23.9585 25.5799 23.978 25.4529 23.9927C25.3846 24.0024 25.3187 24.0098 25.2552 24.0146C25.1917 24.0244 25.138 24.0366 25.094 24.0513C24.9378 24.0952 24.8035 24.1318 24.6912 24.1611C24.5789 24.1953 24.4813 24.2124 24.3982 24.2124C24.1102 24.2124 23.9124 24.1465 23.805 24.0146C23.7024 23.8828 23.6512 23.6973 23.6512 23.458ZM34.0082 20.001C34.0082 19.542 34.057 19.0464 34.1547 18.5142C34.2572 17.9819 34.4208 17.4717 34.6454 16.9834C34.5478 17.0127 34.4574 17.0273 34.3744 17.0273C34.1889 17.0273 34.0448 16.9956 33.9423 16.9321C33.8397 16.8638 33.7641 16.7856 33.7152 16.6978C33.6713 16.6099 33.6444 16.5195 33.6347 16.4268C33.6298 16.334 33.6273 16.2607 33.6273 16.207C33.6273 16.0605 33.6518 15.9409 33.7006 15.8481C33.7494 15.7505 33.8178 15.6724 33.9057 15.6138C33.9936 15.5552 34.101 15.5088 34.2279 15.4746C34.3598 15.4404 34.5063 15.4062 34.6674 15.3721C34.7504 15.3623 34.8407 15.3403 34.9384 15.3062C35.036 15.2671 35.1313 15.228 35.224 15.189C35.351 15.1353 35.4853 15.0864 35.6269 15.0425C35.7685 14.9985 35.9149 14.9766 36.0663 14.9766C36.2226 14.9766 36.3544 14.9985 36.4618 15.0425C36.5741 15.0864 36.6645 15.1475 36.7328 15.2256C36.8061 15.2988 36.8573 15.3867 36.8866 15.4893C36.9208 15.5869 36.9379 15.6919 36.9379 15.8042C36.9379 15.9458 36.9062 16.0898 36.8427 16.2363C36.7792 16.3828 36.6889 16.522 36.5717 16.6538C36.4154 16.8296 36.2787 17.0469 36.1615 17.3057C36.0443 17.5645 35.9442 17.8452 35.8612 18.1479C35.7831 18.4458 35.7221 18.7559 35.6781 19.0781C35.6391 19.3955 35.6195 19.7031 35.6195 20.001C35.6195 20.9189 35.8075 21.5952 36.1835 22.0298C36.5644 22.4644 37.1234 22.6816 37.8607 22.6816C38.1 22.6816 38.3393 22.6475 38.5785 22.5791C38.8227 22.5107 39.0595 22.418 39.289 22.3008C39.5233 22.1787 39.7455 22.0371 39.9555 21.876C40.1703 21.71 40.3705 21.5317 40.5561 21.3413C40.5658 20.9263 40.5731 20.543 40.578 20.1914C40.5829 19.835 40.5854 19.4883 40.5854 19.1514C40.5854 18.9463 40.5854 18.7534 40.5854 18.5728C40.5854 18.3872 40.5829 18.2065 40.578 18.0308C40.5731 17.8501 40.5683 17.6646 40.5634 17.4741C40.5585 17.2788 40.5512 17.0664 40.5414 16.8369C40.39 16.8809 40.246 16.915 40.1093 16.9395C39.9726 16.9639 39.87 16.9761 39.8017 16.9761C39.6991 16.9761 39.6015 16.959 39.5087 16.9248C39.4159 16.8906 39.3329 16.8394 39.2597 16.771C39.1864 16.7026 39.1278 16.6172 39.0839 16.5146C39.0399 16.4072 39.018 16.2827 39.018 16.1411C39.018 15.9897 39.0448 15.8677 39.0985 15.7749C39.1571 15.6772 39.2377 15.6016 39.3402 15.5479C39.4477 15.4893 39.5746 15.4429 39.7211 15.4087C39.8676 15.3745 40.0312 15.3379 40.2118 15.2988C40.3144 15.2842 40.412 15.2598 40.5048 15.2256C40.6024 15.1865 40.7001 15.1499 40.7978 15.1157C40.8954 15.0767 40.9955 15.0449 41.098 15.0205C41.2006 14.9912 41.308 14.9766 41.4203 14.9766C41.5961 14.9766 41.7304 15.0083 41.8231 15.0718C41.9159 15.1304 41.9843 15.2134 42.0282 15.3208C42.0722 15.4233 42.0966 15.5479 42.1015 15.6943C42.1112 15.8359 42.1161 15.9873 42.1161 16.1484C42.1161 16.29 42.1161 16.4731 42.1161 16.6978C42.1161 16.9175 42.1186 17.1665 42.1234 17.4448C42.1234 18.2456 42.1308 19.061 42.1454 19.8911C42.1601 20.7163 42.1674 21.6001 42.1674 22.5425C42.1674 22.6743 42.1747 22.8086 42.1894 22.9453C42.2089 23.0771 42.2187 23.2212 42.2187 23.3774C42.2187 23.5093 42.2089 23.6265 42.1894 23.729C42.1747 23.8267 42.1332 23.9097 42.0648 23.978C42.0014 24.0464 41.9037 24.1001 41.7719 24.1392C41.6449 24.1831 41.4667 24.2075 41.2372 24.2124C41.0907 24.2124 40.9662 24.1831 40.8637 24.1245C40.766 24.0708 40.6854 24.0024 40.622 23.9194C40.5634 23.8364 40.5194 23.7485 40.4901 23.6558C40.4657 23.5581 40.4535 23.4702 40.4535 23.3921C40.4535 23.3384 40.456 23.2969 40.4608 23.2676C40.4706 23.2334 40.4804 23.1919 40.4901 23.1431C40.2655 23.3384 40.0336 23.5044 39.7943 23.6411C39.56 23.7729 39.328 23.8828 39.0985 23.9707C38.869 24.0537 38.6444 24.1147 38.4247 24.1538C38.2099 24.1929 38.0097 24.2124 37.8241 24.2124C36.5546 24.2124 35.6 23.8535 34.9604 23.1357C34.3256 22.418 34.0082 21.373 34.0082 20.001ZM43.8232 23.3628C43.8232 23.2651 43.8281 23.1846 43.8379 23.1211C43.8477 23.0527 43.8696 22.9893 43.9038 22.9307C43.938 22.8721 43.9844 22.8086 44.043 22.7402C44.1016 22.6719 44.1797 22.584 44.2773 22.4766C44.3701 22.374 44.4824 22.2495 44.6143 22.103C44.751 21.9517 44.9097 21.7661 45.0903 21.5464C45.2759 21.3218 45.4883 21.0532 45.7275 20.7407C45.9668 20.4282 46.2402 20.0596 46.5479 19.6348C46.3574 19.415 46.1646 19.1929 45.9692 18.9683C45.7788 18.7388 45.5884 18.5068 45.3979 18.2725C45.1929 18.0137 44.9854 17.7573 44.7754 17.5034C44.5703 17.2495 44.3628 17.0029 44.1528 16.7637C44.0356 16.6367 43.9258 16.4878 43.8232 16.3169C43.7256 16.146 43.6768 15.958 43.6768 15.7529C43.6768 15.6455 43.7012 15.5454 43.75 15.4526C43.8037 15.355 43.8696 15.272 43.9478 15.2036C44.0308 15.1353 44.1235 15.0815 44.2261 15.0425C44.3286 14.9985 44.4287 14.9766 44.5264 14.9766C44.668 14.9766 44.8145 15.0327 44.9658 15.145C45.1172 15.2524 45.2417 15.416 45.3394 15.6357L45.332 15.6284L47.4561 18.3457L49.2871 15.8408V15.8481C49.3408 15.7554 49.397 15.6577 49.4556 15.5552C49.5142 15.4526 49.5825 15.3599 49.6606 15.2769C49.7437 15.189 49.8364 15.1182 49.939 15.0645C50.0464 15.0059 50.1709 14.9766 50.3125 14.9766C50.4053 14.9766 50.5005 14.9985 50.5981 15.0425C50.6958 15.0864 50.7861 15.1475 50.8691 15.2256C50.9521 15.2988 51.0205 15.3867 51.0742 15.4893C51.1279 15.5918 51.1548 15.7041 51.1548 15.8262C51.1548 15.9238 51.123 16.0386 51.0596 16.1704C50.9961 16.2974 50.918 16.4292 50.8252 16.5659C50.7373 16.6978 50.6445 16.8247 50.5469 16.9468C50.4492 17.0688 50.3687 17.1689 50.3052 17.2471C50.2319 17.3447 50.1514 17.4521 50.0635 17.5693C49.9756 17.6816 49.8633 17.8281 49.7266 18.0088C49.5947 18.1846 49.4263 18.4067 49.2212 18.6753C49.021 18.939 48.7695 19.2686 48.4668 19.6641C48.8037 20.084 49.0942 20.4404 49.3384 20.7334C49.5874 21.0264 49.8096 21.2827 50.0049 21.5024C50.2051 21.7173 50.3882 21.9126 50.5542 22.0884C50.7251 22.2642 50.9009 22.4448 51.0815 22.6304C51.145 22.7036 51.1963 22.7866 51.2354 22.8794C51.2793 22.9673 51.3135 23.0552 51.3379 23.1431C51.3623 23.2261 51.3794 23.3042 51.3892 23.3774C51.4038 23.4458 51.4111 23.4971 51.4111 23.5312C51.4111 23.751 51.3452 23.9194 51.2134 24.0366C51.0815 24.1538 50.8569 24.2124 50.5396 24.2124C50.5054 24.2124 50.4565 24.1978 50.3931 24.1685C50.3296 24.1392 50.2637 24.105 50.1953 24.0659C50.127 24.0317 50.0635 23.9951 50.0049 23.9561C49.9463 23.917 49.9048 23.8853 49.8804 23.8608C49.7339 23.6899 49.6069 23.5386 49.4995 23.4067C49.397 23.2749 49.2993 23.1504 49.2065 23.0332C49.1187 22.9111 49.0283 22.7866 48.9355 22.6597C48.8477 22.5327 48.7427 22.3887 48.6206 22.2275C48.4985 22.0615 48.3521 21.8711 48.1812 21.6562C48.0103 21.4414 47.8003 21.1851 47.5513 20.8872C47.2437 21.312 46.9336 21.7319 46.6211 22.147C46.3086 22.5571 45.9985 22.9746 45.6909 23.3994C45.6665 23.4727 45.6299 23.5581 45.5811 23.6558C45.5322 23.7485 45.4712 23.8364 45.3979 23.9194C45.3247 24.0024 45.2344 24.0708 45.127 24.1245C45.0244 24.1831 44.9023 24.2124 44.7607 24.2124C44.7021 24.2124 44.6191 24.2002 44.5117 24.1758C44.4092 24.1514 44.3066 24.105 44.2041 24.0366C44.1016 23.9731 44.0112 23.8877 43.9331 23.7803C43.8599 23.6729 43.8232 23.5337 43.8232 23.3628ZM53.7848 21.876L53.7408 16.7124L52.8546 16.7197C52.7423 16.7197 52.6446 16.6978 52.5616 16.6538C52.4786 16.605 52.4078 16.5415 52.3492 16.4634C52.2955 16.3804 52.254 16.2876 52.2247 16.1851C52.1954 16.0825 52.1808 15.9751 52.1808 15.8628C52.1808 15.6724 52.2027 15.5283 52.2467 15.4307C52.2955 15.3281 52.3639 15.2549 52.4518 15.2109C52.5396 15.1621 52.6471 15.1353 52.774 15.1304C52.901 15.1206 53.0475 15.1157 53.2135 15.1157H53.7335V14.8447C53.7335 14.6641 53.7311 14.5176 53.7262 14.4053C53.7262 14.293 53.7262 14.2173 53.7262 14.1782C53.7262 14.0366 53.7115 13.895 53.6822 13.7534C53.6578 13.6118 53.6456 13.4678 53.6456 13.3213C53.6456 13.1992 53.6603 13.0918 53.6896 12.999C53.7188 12.9062 53.7677 12.8281 53.836 12.7646C53.9093 12.6963 54.0045 12.645 54.1217 12.6108C54.2389 12.5767 54.3829 12.5596 54.5538 12.5596C54.671 12.5596 54.7809 12.5693 54.8834 12.5889C54.9908 12.6084 55.0836 12.6475 55.1617 12.7061C55.2447 12.7598 55.3106 12.8354 55.3595 12.9331C55.4083 13.0308 55.4327 13.1577 55.4327 13.314C55.4327 13.5239 55.4132 13.7314 55.3741 13.9365C55.3399 14.1416 55.3253 14.354 55.3302 14.5737V15.1084C55.711 15.0986 56.0064 15.0913 56.2164 15.0864C56.4313 15.0815 56.6046 15.0767 56.7364 15.0718C56.756 15.0718 56.773 15.0718 56.7877 15.0718C56.8072 15.0669 56.8243 15.0645 56.839 15.0645C56.8976 15.0596 56.9635 15.0571 57.0367 15.0571C57.11 15.0571 57.1686 15.0571 57.2125 15.0571C57.3053 15.0571 57.3956 15.0718 57.4835 15.1011C57.5714 15.1304 57.6471 15.1792 57.7105 15.2476C57.7789 15.3159 57.8326 15.4038 57.8717 15.5112C57.9107 15.6187 57.9303 15.748 57.9303 15.8994C57.9303 16.0166 57.9205 16.1265 57.901 16.229C57.8814 16.3315 57.8448 16.4219 57.7911 16.5C57.7374 16.5781 57.6593 16.6416 57.5567 16.6904C57.4542 16.7344 57.3224 16.7563 57.1612 16.7563C57.0099 16.7563 56.8561 16.749 56.6998 16.7344C56.5484 16.7148 56.3922 16.7026 56.2311 16.6978L55.3448 16.7051L55.3961 22.4839C55.5963 22.4497 55.7721 22.418 55.9234 22.3887C56.0748 22.3594 56.2164 22.3301 56.3482 22.3008C56.4801 22.2715 56.6095 22.2373 56.7364 22.1982C56.8634 22.1592 57.0025 22.1104 57.1539 22.0518C57.2369 22.0078 57.3346 21.9639 57.4469 21.9199C57.5592 21.8711 57.6764 21.8467 57.7984 21.8467C58.0377 21.8467 58.2257 21.9297 58.3624 22.0957C58.4991 22.2568 58.5675 22.4692 58.5675 22.7329C58.5675 22.8013 58.5504 22.877 58.5162 22.96C58.4869 23.043 58.4405 23.126 58.3771 23.209C58.3136 23.2871 58.2306 23.3604 58.128 23.4287C58.0304 23.4922 57.9132 23.5386 57.7765 23.5679C57.63 23.5972 57.4615 23.6338 57.2711 23.6777C57.0807 23.7217 56.8805 23.7681 56.6705 23.8169C56.4605 23.8657 56.2506 23.9146 56.0406 23.9634C55.8307 24.0122 55.6329 24.0537 55.4474 24.0879C55.2618 24.127 55.0982 24.1587 54.9566 24.1831C54.815 24.2075 54.7076 24.2173 54.6344 24.2124C54.5465 24.2124 54.4488 24.2002 54.3414 24.1758C54.2389 24.1562 54.1437 24.1172 54.0558 24.0586C53.9679 24.0049 53.8946 23.9292 53.836 23.8315C53.7823 23.729 53.7555 23.5996 53.7555 23.4434L53.7848 21.876ZM20.6632 41.103C20.6632 40.9907 20.69 40.8882 20.7437 40.7954C20.7975 40.7026 20.8634 40.6245 20.9415 40.561C21.0245 40.4927 21.1148 40.4414 21.2125 40.4072C21.3102 40.3682 21.4054 40.3486 21.4981 40.3486C21.6104 40.3486 21.7057 40.3608 21.7838 40.3853C21.8619 40.4097 21.9303 40.4438 21.9889 40.4878C22.0475 40.5317 22.0987 40.583 22.1427 40.6416C22.1866 40.7002 22.233 40.7637 22.2818 40.832C22.4771 41.125 22.7628 41.3521 23.1388 41.5132C23.5147 41.6694 24.0055 41.7476 24.6109 41.7476C24.86 41.7476 25.0943 41.7256 25.3141 41.6816C25.5387 41.6377 25.734 41.5718 25.9 41.4839C26.0709 41.396 26.2052 41.2886 26.3028 41.1616C26.4054 41.0347 26.4566 40.8882 26.4566 40.7222C26.4566 40.4976 26.3907 40.3071 26.2589 40.1509C26.1319 39.9946 25.961 39.8604 25.7462 39.748C25.5362 39.6357 25.297 39.5405 25.0284 39.4624C24.7599 39.3843 24.484 39.3086 24.2008 39.2354C23.942 39.1719 23.6808 39.1035 23.4171 39.0303C23.1534 38.9521 22.8971 38.8643 22.648 38.7666C22.399 38.6641 22.1646 38.5444 21.9449 38.4077C21.7301 38.2661 21.5421 38.1001 21.381 37.9097C21.2198 37.7192 21.0904 37.4995 20.9928 37.2505C20.9 36.9966 20.8536 36.7061 20.8536 36.3789C20.8536 35.9395 20.9562 35.5684 21.1612 35.2656C21.3712 34.958 21.6397 34.709 21.9669 34.5186C22.2989 34.3281 22.6676 34.1914 23.0729 34.1084C23.4781 34.0205 23.8761 33.9766 24.2667 33.9766C24.4913 33.9766 24.6964 33.9888 24.8819 34.0132C25.0675 34.0376 25.2408 34.0693 25.402 34.1084C25.5631 34.1475 25.7169 34.1963 25.8634 34.2549C26.0099 34.3086 26.1563 34.3647 26.3028 34.4233C26.3224 34.3501 26.3517 34.2769 26.3907 34.2036C26.4347 34.1255 26.4859 34.0571 26.5445 33.9985C26.6031 33.9351 26.6715 33.8838 26.7496 33.8447C26.8277 33.8057 26.9156 33.7861 27.0133 33.7861C27.2525 33.7861 27.4381 33.8325 27.5699 33.9253C27.7018 34.0181 27.7677 34.1816 27.7677 34.416C27.7677 34.6016 27.7604 34.7944 27.7457 34.9946C27.7311 35.1948 27.7237 35.4146 27.7237 35.6538C27.7481 35.7124 27.7652 35.7783 27.775 35.8516C27.7848 35.9199 27.7896 35.981 27.7896 36.0347C27.7896 36.1519 27.7701 36.252 27.7311 36.335C27.692 36.4131 27.6383 36.479 27.5699 36.5327C27.5016 36.5815 27.421 36.6182 27.3282 36.6426C27.2403 36.667 27.1427 36.6792 27.0353 36.6792C26.9376 36.6792 26.8424 36.6621 26.7496 36.6279C26.6617 36.5938 26.5812 36.5498 26.5079 36.4961C26.4347 36.4375 26.3712 36.3716 26.3175 36.2983C26.2638 36.2251 26.2223 36.1494 26.193 36.0713C26.1148 36.0078 26.0147 35.937 25.8927 35.8589C25.7755 35.7759 25.6339 35.7002 25.4679 35.6318C25.3067 35.5635 25.1212 35.5073 24.9112 35.4634C24.7013 35.4146 24.4693 35.3901 24.2154 35.3901C23.9664 35.3901 23.7345 35.4146 23.5196 35.4634C23.3097 35.5073 23.1266 35.5732 22.9703 35.6611C22.8189 35.749 22.6993 35.854 22.6114 35.9761C22.5235 36.0981 22.4796 36.2349 22.4796 36.3862C22.4796 36.5815 22.5382 36.75 22.6554 36.8916C22.7774 37.0283 22.9386 37.1504 23.1388 37.2578C23.339 37.3604 23.5709 37.4531 23.8346 37.5361C24.1031 37.6191 24.3814 37.6997 24.6695 37.7778C25.065 37.8853 25.463 38.0049 25.8634 38.1367C26.2687 38.2686 26.6324 38.4395 26.9547 38.6494C27.2818 38.8545 27.5479 39.1157 27.753 39.4331C27.9581 39.7456 28.0606 40.1387 28.0606 40.6123C28.0606 40.9785 28.0045 41.2959 27.8922 41.5645C27.7799 41.833 27.631 42.0649 27.4454 42.2603C27.2599 42.4507 27.0426 42.6094 26.7936 42.7363C26.5494 42.8584 26.2931 42.9536 26.0245 43.022C25.7608 43.0952 25.4923 43.144 25.2188 43.1685C24.9454 43.1978 24.6866 43.2124 24.4425 43.2124C24.1007 43.2124 23.7711 43.1807 23.4537 43.1172C23.1363 43.0537 22.836 42.9683 22.5528 42.8608C22.2745 42.7534 22.0182 42.6289 21.7838 42.4873C21.5543 42.3457 21.3565 42.1968 21.1905 42.0405C21.0245 41.8843 20.8951 41.7256 20.8023 41.5645C20.7096 41.4033 20.6632 41.2495 20.6632 41.103ZM29.8264 42.4727C29.8264 42.3848 29.8288 42.2944 29.8337 42.2017C29.8435 42.1089 29.8532 42.0161 29.863 41.9233C29.8776 41.7964 29.8923 41.6548 29.9069 41.4985C29.9216 41.3423 29.9289 41.1689 29.9289 40.9785C29.9289 40.6904 29.9265 40.3193 29.9216 39.8652C29.9216 39.4111 29.9191 38.9082 29.9143 38.3564C29.9094 37.7998 29.9045 37.2163 29.8996 36.606C29.8947 35.9907 29.8874 35.3804 29.8776 34.7749C29.8728 34.1646 29.8654 33.5786 29.8557 33.0171C29.8508 32.4556 29.8459 31.9502 29.841 31.501C29.7678 31.4912 29.6896 31.4961 29.6066 31.5156C29.5236 31.5303 29.426 31.5376 29.3137 31.5376C29.2258 31.5376 29.1354 31.5229 29.0427 31.4937C28.9548 31.4644 28.8718 31.4204 28.7937 31.3618C28.7204 31.2983 28.6594 31.2153 28.6105 31.1128C28.5666 31.0103 28.5446 30.8857 28.5446 30.7393C28.5446 30.4805 28.613 30.2852 28.7497 30.1533C28.8864 30.0166 29.05 29.9482 29.2404 29.9482C29.3186 29.9482 29.3942 29.958 29.4675 29.9775C29.5407 29.9971 29.6188 30.0068 29.7019 30.0068C29.7995 30.0068 29.8996 30.0044 30.0021 29.9995C30.1047 29.9946 30.2048 29.9873 30.3024 29.9775C30.4099 29.9678 30.5148 29.9604 30.6174 29.9556C30.7248 29.9507 30.8176 29.9482 30.8957 29.9482C31.1008 29.9482 31.2668 30.0166 31.3937 30.1533C31.5256 30.2852 31.5915 30.4683 31.5915 30.7026C31.5915 31.3325 31.5842 31.9746 31.5695 32.6289C31.5598 33.2783 31.55 33.979 31.5402 34.731L31.5256 35.1045C31.6965 34.9531 31.8845 34.8091 32.0896 34.6724C32.2946 34.5356 32.5119 34.416 32.7414 34.3135C32.9758 34.2109 33.2175 34.1304 33.4665 34.0718C33.7155 34.0083 33.9694 33.9766 34.2282 33.9766C34.8435 33.9766 35.3903 34.0669 35.8688 34.2476C36.3522 34.4282 36.76 34.7041 37.092 35.0752C37.424 35.4463 37.6755 35.9126 37.8464 36.4741C38.0222 37.0356 38.1101 37.6997 38.1101 38.4663C38.1101 38.6909 38.093 38.9253 38.0588 39.1694C38.0295 39.4136 37.9855 39.6577 37.927 39.9019C37.8684 40.146 37.7976 40.3877 37.7146 40.627C37.6315 40.8613 37.5388 41.0811 37.4362 41.2861C37.5437 41.2471 37.6511 41.2129 37.7585 41.1836C37.8659 41.1494 37.9831 41.1323 38.1101 41.1323C38.2712 41.1323 38.403 41.1641 38.5056 41.2275C38.6081 41.2861 38.6862 41.3569 38.7399 41.4399C38.7985 41.5229 38.8376 41.6084 38.8571 41.6963C38.8767 41.7842 38.8864 41.8525 38.8864 41.9014C38.8864 42.0869 38.8303 42.2456 38.718 42.3774C38.6105 42.5093 38.4714 42.6045 38.3005 42.6631C38.1589 42.7168 37.9807 42.7754 37.7658 42.8389C37.551 42.9023 37.3337 42.9609 37.114 43.0146C36.8991 43.0684 36.6965 43.1147 36.5061 43.1538C36.3156 43.1929 36.1716 43.2124 36.0739 43.2124C35.7565 43.2124 35.5295 43.1367 35.3928 42.9854C35.2609 42.8291 35.195 42.6289 35.195 42.3848C35.195 42.2529 35.2316 42.1089 35.3049 41.9526C35.3781 41.7964 35.466 41.6523 35.5686 41.5205C35.6955 41.3398 35.8127 41.1323 35.9201 40.8979C36.0275 40.6587 36.1203 40.4072 36.1984 40.1436C36.2814 39.875 36.3449 39.5991 36.3889 39.3159C36.4377 39.0278 36.4621 38.7446 36.4621 38.4663C36.4621 38.0073 36.4182 37.5972 36.3303 37.2358C36.2473 36.8745 36.113 36.5693 35.9274 36.3203C35.7419 36.0713 35.5002 35.8833 35.2023 35.7563C34.9094 35.6245 34.5529 35.5586 34.133 35.5586C33.8889 35.5586 33.6447 35.6025 33.4006 35.6904C33.1564 35.7783 32.9196 35.8955 32.6901 36.042C32.4606 36.1836 32.2434 36.3496 32.0383 36.54C31.8381 36.7256 31.6599 36.916 31.5036 37.1113C31.4938 37.8389 31.4865 38.564 31.4816 39.2866C31.4816 40.0044 31.4865 40.7393 31.4963 41.4912C31.5061 41.4912 31.5183 41.4888 31.5329 41.4839C31.5524 41.479 31.5939 41.4644 31.6574 41.4399C31.7014 41.4204 31.7478 41.4033 31.7966 41.3887C31.8503 41.374 31.9089 41.3643 31.9724 41.3594C32.236 41.3496 32.4362 41.4131 32.5729 41.5498C32.7146 41.6816 32.7854 41.8721 32.7854 42.1211C32.7854 42.209 32.7683 42.2969 32.7341 42.3848C32.7048 42.4678 32.6633 42.5435 32.6096 42.6118C32.5559 42.6802 32.4924 42.7388 32.4191 42.7876C32.3459 42.8364 32.2653 42.8706 32.1774 42.8901C32.0798 42.9097 31.9821 42.9316 31.8845 42.9561C31.7917 42.9756 31.6965 42.9951 31.5988 43.0146C31.5109 43.0342 31.4157 43.0562 31.3132 43.0806C31.2155 43.105 31.1179 43.127 31.0202 43.1465C30.9274 43.166 30.842 43.1807 30.7639 43.1904C30.6857 43.2051 30.6223 43.2124 30.5734 43.2124C30.2854 43.2124 30.0876 43.1489 29.9802 43.022C29.8776 42.895 29.8264 42.7119 29.8264 42.4727ZM39.9197 38.5835C39.9197 37.9487 40.0369 37.353 40.2713 36.7964C40.5105 36.2349 40.8353 35.7466 41.2454 35.3315C41.6604 34.9116 42.1438 34.582 42.6956 34.3428C43.2474 34.0986 43.8382 33.9766 44.4681 33.9766C45.1565 33.9766 45.7791 34.0986 46.3357 34.3428C46.8973 34.582 47.3758 34.9116 47.7713 35.3315C48.1717 35.7466 48.4793 36.2349 48.6941 36.7964C48.909 37.353 49.0164 37.9487 49.0164 38.5835C49.0164 39.0474 48.9603 39.4844 48.8479 39.8945C48.7405 40.3047 48.5867 40.6807 48.3865 41.0225C48.1863 41.3643 47.9446 41.6719 47.6614 41.9453C47.3831 42.2139 47.0755 42.4434 46.7386 42.6338C46.4017 42.8193 46.0403 42.9609 45.6546 43.0586C45.2737 43.1611 44.8782 43.2124 44.4681 43.2124C43.8528 43.2124 43.2693 43.1025 42.7176 42.8828C42.1658 42.6582 41.6824 42.3457 41.2674 41.9453C40.8523 41.54 40.5228 41.0542 40.2786 40.4878C40.0394 39.9165 39.9197 39.2817 39.9197 38.5835ZM41.6116 38.5835C41.6116 39.0474 41.6775 39.4673 41.8094 39.8433C41.9412 40.2192 42.1292 40.5415 42.3733 40.8101C42.6224 41.0737 42.9227 41.2788 43.2742 41.4253C43.6258 41.5669 44.0213 41.6377 44.4607 41.6377C44.8514 41.6377 45.22 41.5718 45.5667 41.4399C45.9134 41.3081 46.2161 41.1152 46.4749 40.8613C46.7386 40.6025 46.9461 40.2827 47.0975 39.9019C47.2537 39.521 47.3318 39.0815 47.3318 38.5835C47.3318 38.1733 47.2659 37.7852 47.1341 37.4189C47.0071 37.0479 46.8216 36.7256 46.5774 36.4521C46.3333 36.1787 46.033 35.9614 45.6766 35.8003C45.3201 35.6392 44.9148 35.5586 44.4607 35.5586C44.0066 35.5586 43.6038 35.6392 43.2522 35.8003C42.9007 35.9614 42.6028 36.1787 42.3587 36.4521C42.1145 36.7256 41.929 37.0479 41.802 37.4189C41.6751 37.7852 41.6116 38.1733 41.6116 38.5835ZM52.3129 43.5273C52.3178 43.7471 52.3202 43.979 52.3202 44.2231C52.3251 44.4673 52.3275 44.7065 52.3275 44.9409C52.3324 45.1753 52.3349 45.3926 52.3349 45.5928C52.3397 45.7979 52.3422 45.9688 52.3422 46.1055C52.3422 46.2324 52.3153 46.3374 52.2616 46.4204C52.2128 46.5034 52.1469 46.5693 52.0639 46.6182C51.9857 46.667 51.8979 46.6987 51.8002 46.7134C51.7025 46.7329 51.6073 46.7427 51.5145 46.7427C51.412 46.7427 51.3144 46.7329 51.2216 46.7134C51.1337 46.6987 51.0556 46.667 50.9872 46.6182C50.9237 46.5742 50.8725 46.5107 50.8334 46.4277C50.7943 46.3447 50.7748 46.2397 50.7748 46.1128V38.9717C50.7748 38.6641 50.7748 38.3296 50.7748 37.9683C50.7748 37.6021 50.7724 37.2505 50.7675 36.9136C50.7675 36.5767 50.7626 36.2788 50.7528 36.02C50.7479 35.7563 50.7406 35.5757 50.7309 35.478C50.6918 35.478 50.6259 35.4878 50.5331 35.5073C50.4452 35.522 50.3598 35.5293 50.2768 35.5293C50.1889 35.5293 50.0985 35.5171 50.0058 35.4927C49.9179 35.4683 49.8373 35.4268 49.7641 35.3682C49.6908 35.3096 49.6298 35.2314 49.581 35.1338C49.5321 35.0361 49.5077 34.9116 49.5077 34.7603C49.5077 34.604 49.5248 34.4771 49.559 34.3794C49.598 34.2817 49.6518 34.2061 49.7201 34.1523C49.7885 34.0938 49.8715 34.0547 49.9691 34.0352C50.0668 34.0156 50.1791 34.0059 50.3061 34.0059C50.4135 34.0059 50.5209 34.0132 50.6283 34.0278C50.7357 34.0425 50.848 34.0498 50.9652 34.0498C51.0678 34.0498 51.1728 34.0425 51.2802 34.0278C51.3876 34.0132 51.5072 34.0059 51.6391 34.0059C51.8539 34.0059 52.0248 34.0596 52.1518 34.167C52.2787 34.2695 52.3422 34.4331 52.3422 34.6577C52.3422 34.7554 52.3324 34.8555 52.3129 34.958C52.2982 35.0605 52.286 35.1655 52.2763 35.2729C52.4276 35.0825 52.6034 34.9092 52.8036 34.7529C53.0087 34.5918 53.2333 34.4551 53.4774 34.3428C53.7216 34.2256 53.9828 34.1353 54.2611 34.0718C54.5443 34.0083 54.8373 33.9766 55.14 33.9766C55.7699 33.9766 56.3461 34.0815 56.8686 34.2915C57.391 34.4966 57.8378 34.7944 58.2089 35.1851C58.5849 35.5757 58.8754 36.0518 59.0805 36.6133C59.2904 37.1748 59.3954 37.8071 59.3954 38.5103C59.3954 39.1694 59.2978 39.7871 59.1024 40.3633C58.912 40.9346 58.6312 41.4326 58.2602 41.8574C57.8891 42.2773 57.4301 42.6094 56.8832 42.8535C56.3412 43.0928 55.7211 43.2124 55.0229 43.2124C54.4857 43.2124 53.9755 43.1172 53.4921 42.9268C53.0136 42.7314 52.6107 42.4604 52.2836 42.1138L52.3129 43.5273ZM52.2689 39.1548C52.3275 39.5112 52.4325 39.8408 52.5839 40.1436C52.7353 40.4463 52.9208 40.71 53.1405 40.9346C53.3603 41.1543 53.6068 41.3276 53.8803 41.4546C54.1586 41.5767 54.4516 41.6377 54.7592 41.6377C55.2523 41.6377 55.6796 41.5669 56.0409 41.4253C56.4071 41.2837 56.7074 41.0786 56.9418 40.8101C57.1811 40.5415 57.3593 40.2168 57.4765 39.8359C57.5937 39.4502 57.6522 39.0156 57.6522 38.5322C57.6522 38.1221 57.5937 37.7363 57.4765 37.375C57.3593 37.0137 57.1884 36.6987 56.9638 36.4302C56.7392 36.1616 56.4633 35.9492 56.1361 35.793C55.809 35.6367 55.4379 35.5586 55.0229 35.5586C54.6859 35.5586 54.3612 35.6392 54.0487 35.8003C53.7362 35.9565 53.4555 36.1689 53.2064 36.4375C52.9623 36.7061 52.7572 37.0186 52.5912 37.375C52.4252 37.7266 52.3178 38.0977 52.2689 38.4883V39.1548Z" fill="#484848"/>
</svg>
